<svg width="144" height="42" viewBox="0 0 144 42" fill="none" xmlns="http://www.w3.org/2000/svg">
<path d="M75.3115 30.485L72.0615 37.141C71.7842 37.6956 71.4895 38.0943 71.1775 38.337C70.8655 38.5623 70.4928 38.675 70.0595 38.675C69.5048 38.675 69.0368 38.4843 68.6555 38.103C68.2742 37.7043 67.7802 36.9936 67.1735 35.971L64.1575 30.485V37.843C64.1575 38.5883 63.9842 39.1343 63.6375 39.481C63.3082 39.8276 62.8055 40.001 62.1295 40.001C61.3668 40.001 60.8122 39.8363 60.4655 39.507C60.1188 39.1603 59.9455 38.493 59.9455 37.505V26.169C59.9455 24.8343 60.2488 23.829 60.8555 23.153C61.4622 22.477 62.4848 22.139 63.9235 22.139C64.4608 22.139 64.9288 22.2343 65.3275 22.425C65.7262 22.5983 66.0208 22.8063 66.2115 23.049C66.4195 23.2743 66.6188 23.5603 66.8095 23.907L70.2935 31.525L73.9855 24.037C74.6268 22.789 75.7795 22.165 77.4435 22.165C78.2235 22.165 78.8908 22.3036 79.4455 22.581C80.0002 22.841 80.4335 23.2743 80.7455 23.881C81.0748 24.4703 81.2395 25.2156 81.2395 26.117V37.427C81.2222 39.143 80.1388 40.001 77.9895 40.001C77.2095 40.001 76.5682 39.793 76.0655 39.377C75.5802 38.9436 75.3288 38.2503 75.3115 37.297V30.485ZM99.9912 30.485L96.7412 37.141C96.4638 37.6956 96.1692 38.0943 95.8572 38.337C95.5452 38.5623 95.1725 38.675 94.7392 38.675C94.1845 38.675 93.7165 38.4843 93.3352 38.103C92.9538 37.7043 92.4598 36.9936 91.8532 35.971L88.8372 30.485V37.843C88.8372 38.5883 88.6638 39.1343 88.3172 39.481C87.9878 39.8276 87.4852 40.001 86.8092 40.001C86.0465 40.001 85.4918 39.8363 85.1452 39.507C84.7985 39.1603 84.6252 38.493 84.6252 37.505V26.169C84.6252 24.8343 84.9285 23.829 85.5352 23.153C86.1418 22.477 87.1645 22.139 88.6032 22.139C89.1405 22.139 89.6085 22.2343 90.0072 22.425C90.4058 22.5983 90.7005 22.8063 90.8912 23.049C91.0992 23.2743 91.2985 23.5603 91.4892 23.907L94.9732 31.525L98.6652 24.037C99.3065 22.789 100.459 22.165 102.123 22.165C102.903 22.165 103.571 22.3036 104.125 22.581C104.68 22.841 105.113 23.2743 105.425 23.881C105.755 24.4703 105.919 25.2156 105.919 26.117V37.427C105.902 39.143 104.819 40.001 102.669 40.001C101.889 40.001 101.248 39.793 100.745 39.377C100.26 38.9436 100.009 38.2503 99.9912 37.297V30.485ZM119.835 29.445C120.754 29.445 121.395 29.5923 121.759 29.887C122.14 30.1816 122.331 30.6843 122.331 31.395C122.331 31.9843 122.106 32.409 121.655 32.669C121.222 32.9116 120.537 33.033 119.601 33.033H115.389V35.789L121.031 35.815C122.002 35.815 122.695 35.9623 123.111 36.257C123.544 36.5343 123.761 37.037 123.761 37.765C123.761 38.597 123.51 39.1776 123.007 39.507C122.522 39.8363 121.776 40.001 120.771 40.001H112.347C111.324 40.001 110.57 39.7323 110.085 39.195C109.617 38.6403 109.383 37.6696 109.383 36.283V25.311C109.383 23.231 110.371 22.191 112.347 22.191H120.771C121.776 22.191 122.522 22.347 123.007 22.659C123.51 22.971 123.761 23.5343 123.761 24.349C123.761 25.1116 123.544 25.649 123.111 25.961C122.695 26.2556 122.002 26.403 121.031 26.403H115.363V29.445H119.835ZM136.602 27.365C136.602 26.533 136.298 25.961 135.692 25.649C135.085 25.337 134.062 25.181 132.624 25.181V29.679C133.976 29.679 134.972 29.5143 135.614 29.185C136.272 28.8383 136.602 28.2316 136.602 27.365ZM132.624 36.101C132.624 38.701 131.61 40.001 129.582 40.001C128.559 40.001 127.805 39.7323 127.32 39.195C126.852 38.6403 126.618 37.6696 126.618 36.283V25.311C126.618 24.3056 126.886 23.543 127.424 23.023C127.978 22.4856 128.698 22.217 129.582 22.217H135.042C137.174 22.217 138.898 22.7196 140.216 23.725C141.533 24.713 142.192 25.987 142.192 27.547C142.192 28.7256 141.94 29.653 141.438 30.329C140.952 30.9876 140.164 31.473 139.072 31.785C139.904 31.837 140.675 32.2443 141.386 33.007C142.096 33.7523 142.452 34.6883 142.452 35.815C142.452 36.959 142.339 37.843 142.114 38.467C141.906 39.0736 141.602 39.481 141.204 39.689C140.805 39.897 140.242 40.001 139.514 40.001C138.491 40.001 137.737 39.793 137.252 39.377C136.784 38.9436 136.55 38.2936 136.55 37.427C136.55 36.3523 136.446 35.529 136.238 34.957C136.03 34.3676 135.761 33.9863 135.432 33.813C135.102 33.6396 134.643 33.553 134.054 33.553L132.624 33.579V36.101Z" fill="#FAFAFA"/>
<path d="M12.8506 35.2902C12.8506 36.2782 12.7293 37.0669 12.4866 37.6562C12.2439 38.2282 11.9059 38.6269 11.4726 38.8522C11.0566 39.0775 10.5019 39.1902 9.80859 39.1902C8.78593 39.1902 8.04059 38.9215 7.57259 38.3842C7.12193 37.8295 6.88793 36.8589 6.87059 35.4722L6.81859 25.8782H4.60859C3.51659 25.8782 2.69326 25.7049 2.13859 25.3582C1.60126 25.0115 1.33259 24.3962 1.33259 23.5122C1.33259 22.9749 1.43659 22.5502 1.64459 22.2382C1.86993 21.9262 2.19926 21.7095 2.63259 21.5882C3.06593 21.4495 3.64659 21.3802 4.37459 21.3802H15.5026C16.4733 21.3802 17.1753 21.5535 17.6086 21.9002C18.0419 22.2469 18.2586 22.8449 18.2586 23.6942C18.2586 24.2662 18.1286 24.7169 17.8686 25.0462C17.6259 25.3582 17.2966 25.5749 16.8806 25.6962C16.4646 25.8175 15.9273 25.8782 15.2686 25.8782H12.8506V35.2902ZM30.7725 26.5542C30.7725 25.7222 30.4692 25.1502 29.8625 24.8382C29.2558 24.5262 28.2332 24.3702 26.7945 24.3702V28.8682C28.1465 28.8682 29.1432 28.7035 29.7845 28.3742C30.4432 28.0275 30.7725 27.4209 30.7725 26.5542ZM26.7945 35.2902C26.7945 37.8902 25.7805 39.1902 23.7525 39.1902C22.7298 39.1902 21.9758 38.9215 21.4905 38.3842C21.0225 37.8295 20.7885 36.8589 20.7885 35.4722V24.5002C20.7885 23.4949 21.0572 22.7322 21.5945 22.2122C22.1492 21.6749 22.8685 21.4062 23.7525 21.4062H29.2125C31.3445 21.4062 33.0692 21.9089 34.3865 22.9142C35.7038 23.9022 36.3625 25.1762 36.3625 26.7362C36.3625 27.9149 36.1112 28.8422 35.6085 29.5182C35.1232 30.1769 34.3345 30.6622 33.2425 30.9742C34.0745 31.0262 34.8458 31.4335 35.5565 32.1962C36.2672 32.9415 36.6225 33.8775 36.6225 35.0042C36.6225 36.1482 36.5098 37.0322 36.2845 37.6562C36.0765 38.2629 35.7732 38.6702 35.3745 38.8782C34.9759 39.0862 34.4125 39.1902 33.6845 39.1902C32.6618 39.1902 31.9078 38.9822 31.4225 38.5662C30.9545 38.1329 30.7205 37.4829 30.7205 36.6162C30.7205 35.5415 30.6165 34.7182 30.4085 34.1462C30.2005 33.5569 29.9318 33.1755 29.6025 33.0022C29.2732 32.8289 28.8138 32.7422 28.2245 32.7422L26.7945 32.7682V35.2902Z" fill="#FAFAFA"/>
<path fill-rule="evenodd" clip-rule="evenodd" d="M46.924 27.8232L46.7963 28.4104C46.6814 28.9365 46.6493 29.506 46.0766 29.7462C45.6942 29.9068 45.2211 29.7775 44.6854 29.4442C44.1392 29.2698 43.5865 29.2096 43.0259 29.2698C42.4837 29.3269 41.9351 29.4972 41.3785 29.7847C39.7302 30.8522 38.7197 32.4932 38.7205 35.0411C38.6402 37.9914 39.8555 39.7416 41.7993 40.8171C43.1424 41.3786 44.3215 41.2878 45.3721 40.683C46.9746 39.7601 47.8324 38.2404 48.1481 36.462C48.3481 35.3351 48.3529 34.1182 48.3256 32.78L48.7168 30.0144L49.108 32.78C49.0807 34.1182 49.0855 35.3351 49.2855 36.462C49.6012 38.2404 50.459 39.7601 52.0615 40.683C53.1121 41.2878 54.2912 41.3786 55.6342 40.8171C57.5781 39.7416 58.7934 37.9914 58.713 35.0411C58.7138 32.4932 57.7034 30.8522 56.0551 29.7847C55.4985 29.4972 54.9499 29.3269 54.4077 29.2698C53.8471 29.2096 53.2944 29.2698 52.7482 29.4442C52.2125 29.7775 51.7394 29.9068 51.3562 29.7462C50.7843 29.506 50.7522 28.9365 50.6373 28.4104L50.5096 27.8232C50.4598 26.6192 50.798 25.3404 50.8413 24.0713C50.8735 23.1267 50.855 22.1588 50.8478 21.2407C50.7915 14.218 50.3466 6.06522 48.2654 0C47.6051 0.816086 46.9167 5.95678 46.6437 12.4975C46.487 16.2253 46.5481 17.9434 46.5714 21.0496C46.5786 22.015 46.5593 23.0271 46.5914 24.0151C46.6332 25.3011 46.9738 26.6095 46.924 27.8232ZM48.2678 0.579935C49.8269 4.83145 49.7546 13.0204 50.4373 17.4069V19.3844C47.0099 18.6045 47.6638 4.07722 48.2678 0.579935ZM52.9988 31.3687C54.0792 30.8225 55.0993 31.2884 55.8343 32.1454C56.4246 32.833 56.7419 33.7559 56.8013 34.9005C56.8511 35.866 56.5499 37.201 55.8929 38.1303C54.6206 39.9296 52.7209 39.3127 51.7233 37.6299C51.2799 36.8821 51.0735 36.0323 51.1241 35.074C51.1586 34.425 51.2871 33.7061 51.553 33.0595C51.8478 32.3446 52.3105 31.7165 52.9988 31.3687ZM48.2975 23.4785C47.8533 23.7348 47.7007 24.3035 47.9577 24.7476C48.214 25.1918 48.7827 25.3444 49.2269 25.0874C49.671 24.8312 49.8228 24.2625 49.5666 23.8183C49.3104 23.3741 48.7417 23.2223 48.2975 23.4785ZM44.4348 31.3687C43.3544 30.8225 42.3343 31.2884 41.5993 32.1454C41.009 32.833 40.6917 33.7559 40.6322 34.9005C40.5824 35.866 40.8837 37.201 41.5407 38.1303C42.813 39.9296 44.7127 39.3127 45.7103 37.6299C46.1537 36.8821 46.3601 36.0323 46.3095 35.074C46.275 34.425 46.1464 33.7061 45.8806 33.0595C45.5858 32.3446 45.1231 31.7165 44.4348 31.3687Z" fill="#9D37ED"/>
</svg>
